M48
;Layer_Color=6321
;FILE_FORMAT=2:5
INCH,LZ
;TYPE=PLATED
T1F00S00C0.01181
T2F00S00C0.09449
%
T01
X0249932Y026811
X0253081Y0275098
X0257874Y0274606
X0264567
X0268829Y0275197
X0266732Y0300987
X026752Y0304531
Y0308861
X0287402Y0302854
X0245866Y0301578
X0237992Y0304137
X0226575Y0299413
X0239892Y0285039
X0241339Y0317129
X0243701Y0326578
X0243504Y0335633
X0243701Y0349606
X025689Y0330121
X0271161Y0321558
X0280118Y0326775
X0281299Y0334452
X0219882Y0323822
T02
X022441Y0283465
X0287402
Y0346457
X022441
M30
