G04 Layer_Physical_Order=2*
G04 Layer_Color=11436288*
%FSLAX25Y25*%
%MOIN*%
G70*
G01*
G75*
%ADD20C,0.01000*%
%ADD21C,0.02362*%
%ADD22C,0.13386*%
%ADD23C,0.00800*%
D20*
X287402Y338764D02*
Y346457D01*
X279709D02*
X287402D01*
X287402Y302854D02*
Y305035D01*
X285221Y302854D02*
X287402D01*
X289583D01*
X267520Y308861D02*
Y311042D01*
Y308861D02*
X269701D01*
X265339D02*
X267520D01*
X287402Y300673D02*
Y302854D01*
X287402Y283465D02*
Y291158D01*
X279709Y283465D02*
X287402D01*
X266732Y300987D02*
X268913D01*
X266732Y298806D02*
Y300987D01*
X264551D02*
X266732D01*
X243701Y349606D02*
X245882D01*
X243701Y347425D02*
Y349606D01*
Y351787D01*
X241520Y349606D02*
X243701D01*
X224410Y346457D02*
X232102D01*
X224410Y338764D02*
Y346457D01*
X249932Y268110D02*
X252113D01*
X249932D02*
Y270291D01*
X247750Y268110D02*
X249932D01*
Y265929D02*
Y268110D01*
X226575Y297232D02*
Y299413D01*
Y301594D01*
Y299413D02*
X228756D01*
X224394D02*
X226575D01*
X239892Y285039D02*
X242073D01*
X239892Y282858D02*
Y285039D01*
Y287221D01*
X237711Y285039D02*
X239892D01*
X224410Y283465D02*
Y291158D01*
Y283465D02*
X232102D01*
X240354Y318507D02*
X241732Y317129D01*
X240354Y318507D02*
Y327562D01*
X266142Y304531D02*
X267520D01*
X264859Y303248D02*
X266142Y304531D01*
X247536Y303248D02*
X264859D01*
X279724Y332877D02*
X281299Y334452D01*
X246260Y332877D02*
X279724D01*
X243504Y335633D02*
X246260Y332877D01*
X253081Y274675D02*
Y303248D01*
X242913Y330121D02*
X256890D01*
X240354Y327562D02*
X242913Y330121D01*
X266142Y326578D02*
X271161Y321558D01*
X258646Y328365D02*
X278528D01*
X279118Y327775D01*
X256890Y330121D02*
X258646Y328365D01*
X244488Y326578D02*
X266142D01*
X280118Y326775D02*
Y326775D01*
X279118Y327775D02*
X280118Y326775D01*
X257874Y274606D02*
Y275787D01*
X264567Y274606D02*
Y279953D01*
X266232Y272138D02*
X268898Y274803D01*
X253081Y274675D02*
X255618Y272138D01*
X266232D01*
X245866Y301578D02*
X247536Y303248D01*
X237992Y304728D02*
Y330121D01*
X243504Y335633D01*
X264567Y279953D02*
X274902Y290287D01*
Y321558D01*
X280315Y326972D01*
X257874Y275787D02*
X273031Y290945D01*
Y319094D01*
X271161Y320965D02*
X273031Y319094D01*
D21*
X267520Y304531D02*
D03*
X266732Y300987D02*
D03*
X267520Y308861D02*
D03*
X226575Y299413D02*
D03*
X219882Y323822D02*
D03*
X237992Y304137D02*
D03*
X241339Y317129D02*
D03*
X281299Y334452D02*
D03*
X243504Y335633D02*
D03*
X245866Y301578D02*
D03*
X243701Y326578D02*
D03*
X280118Y326775D02*
D03*
X256890Y330121D02*
D03*
X271161Y321558D02*
D03*
X239892Y285039D02*
D03*
X249932Y268110D02*
D03*
X268829Y275197D02*
D03*
X257874Y274606D02*
D03*
X264567D02*
D03*
X253081Y275098D02*
D03*
X287402Y302854D02*
D03*
X243701Y349606D02*
D03*
D22*
X224410Y346457D02*
D03*
X287402D02*
D03*
Y283465D02*
D03*
X224410D02*
D03*
D23*
X281317Y332084D02*
G03*
X283668Y334452I-18J2368D01*
G01*
X283000Y353248D02*
G03*
X293421Y341048I4402J-6791D01*
G01*
X283668Y334452D02*
G03*
X278933Y334565I-2369J0D01*
G01*
X282487Y326775D02*
G03*
X280136Y329143I-2369J0D01*
G01*
X280136Y324406D02*
G03*
X282487Y326775I-18J2368D01*
G01*
X279724Y331190D02*
G03*
X280918Y331684I0J1687D01*
G01*
X279724Y331190D02*
G03*
X280920Y331686I0J1687D01*
G01*
X279721Y329558D02*
G03*
X278528Y330053I-1193J-1193D01*
G01*
X279723Y329556D02*
G03*
X278528Y330053I-1195J-1191D01*
G01*
X259258Y330139D02*
G03*
X259003Y331190I-2368J-18D01*
G01*
X268793Y321540D02*
G03*
X270436Y319304I2368J18D01*
G01*
X269888Y304531D02*
G03*
X268717Y306575I-2369J0D01*
G01*
D02*
G03*
X270101Y308861I-1197J2287D01*
G01*
X268797Y302536D02*
G03*
X269888Y304531I-1277J1994D01*
G01*
X270101Y308861D02*
G03*
X266323Y306575I-2581J0D01*
G01*
D02*
G03*
X265828Y306189I1197J-2044D01*
G01*
D02*
G03*
X264949Y305724I313J-1658D01*
G01*
X265828Y306189D02*
G03*
X264946Y305722I313J-1658D01*
G01*
X289983Y302854D02*
G03*
X289983Y302854I-2581J0D01*
G01*
X293489Y288797D02*
G03*
X281788Y277635I-6088J-5333D01*
G01*
X276093Y289092D02*
G03*
X276589Y290287I-1191J1195D01*
G01*
X276095Y289094D02*
G03*
X276589Y290287I-1193J1193D01*
G01*
X269313Y300987D02*
G03*
X268797Y302536I-2581J0D01*
G01*
X264216Y301561D02*
G03*
X269313Y300987I2517J-573D01*
G01*
X271198Y275197D02*
G03*
X266562Y275883I-2369J0D01*
G01*
X266562D02*
G03*
X266254Y276268I-1995J-1276D01*
G01*
X256683Y276983D02*
G03*
X256289Y276366I1191J-1195D01*
G01*
X256681Y276981D02*
G03*
X256289Y276366I1193J-1193D01*
G01*
X269372Y272891D02*
G03*
X271198Y275197I-543J2305D01*
G01*
X266232Y270450D02*
G03*
X267428Y270947I0J1687D01*
G01*
X266232Y270450D02*
G03*
X267425Y270945I0J1687D01*
G01*
X256289Y276366D02*
G03*
X255506Y274637I1585J-1760D01*
G01*
X254423Y270947D02*
G03*
X255618Y270450I1195J1191D01*
G01*
X255420Y274723D02*
G03*
X255450Y275098I-2338J376D01*
G01*
D02*
G03*
X254768Y276761I-2369J0D01*
G01*
X254425Y270945D02*
G03*
X255618Y270450I1193J1193D01*
G01*
X246282Y349606D02*
G03*
X246282Y349606I-2581J0D01*
G01*
X245872Y335651D02*
G03*
X241136Y335651I-2368J-18D01*
G01*
X247536Y304935D02*
G03*
X246343Y304441I0J-1687D01*
G01*
X247536Y304935D02*
G03*
X246341Y304439I0J-1687D01*
G01*
X242042Y324888D02*
G03*
X245363Y324890I1659J1690D01*
G01*
X232502Y346457D02*
G03*
X228811Y353248I-8093J0D01*
G01*
X218141Y341338D02*
G03*
X232502Y346457I6268J5119D01*
G01*
X243707Y317129D02*
G03*
X242042Y319391I-2369J0D01*
G01*
X239680Y315439D02*
G03*
X243707Y317129I1659J1690D01*
G01*
X236801Y331317D02*
G03*
X236305Y330121I1191J-1195D01*
G01*
X236799Y331314D02*
G03*
X236305Y330121I1193J-1193D01*
G01*
Y305799D02*
G03*
X240361Y304137I1687J-1662D01*
G01*
D02*
G03*
X239680Y305799I-2369J0D01*
G01*
X222250Y323822D02*
G03*
X218182Y325471I-2369J0D01*
G01*
X218191Y322164D02*
G03*
X222250Y323822I1691J1658D01*
G01*
X251394Y276761D02*
G03*
X252588Y272782I1687J-1662D01*
G01*
X252513Y268110D02*
G03*
X252513Y268110I-2581J0D01*
G01*
X245848Y303946D02*
G03*
X248235Y301560I18J-2368D01*
G01*
X229156Y299413D02*
G03*
X229156Y299413I-2581J0D01*
G01*
X232502Y283465D02*
G03*
X218277Y288746I-8093J0D01*
G01*
X242473Y285039D02*
G03*
X242473Y285039I-2581J0D01*
G01*
X229628Y277279D02*
G03*
X232502Y283465I-5218J6186D01*
G01*
X291752Y339632D02*
X293425Y337959D01*
X289423Y338620D02*
X293430Y334614D01*
X283521Y333631D02*
X288304Y338414D01*
X282819Y336269D02*
X285214Y338665D01*
X281477Y353248D02*
X282129Y352596D01*
X286258Y338445D02*
X293434Y331269D01*
X283666Y334356D02*
X293443Y324579D01*
X282351Y332330D02*
X293447Y321234D01*
X282179Y325608D02*
X293427Y336855D01*
X281736Y328505D02*
X293423Y340192D01*
X280920Y331686D02*
X281317Y332084D01*
X264773Y353248D02*
X281203Y336819D01*
X277773Y334565D02*
X282924Y339715D01*
X278136Y353248D02*
X280577Y350807D01*
X261070Y334565D02*
X279753Y353248D01*
X264411Y334565D02*
X280455Y350609D01*
X268114Y353248D02*
X293438Y327924D01*
X276589Y316677D02*
X293431Y333519D01*
X274433Y334565D02*
X281166Y341298D01*
X271092Y334565D02*
X279914Y343386D01*
X279577Y329687D02*
X282121Y332230D01*
X280106Y331234D02*
X293451Y317889D01*
X282252Y325747D02*
X293456Y314544D01*
X279723Y329556D02*
X280136Y329143D01*
X288491Y305194D02*
X293461Y310165D01*
X280249Y324410D02*
X293460Y311199D01*
X289943Y303306D02*
X293466Y306828D01*
X276589Y309996D02*
X293440Y326846D01*
X276589Y313336D02*
X293436Y330183D01*
X278524Y322794D02*
X293464Y307854D01*
X276589Y320018D02*
X281285Y324714D01*
X259003Y331190D02*
X279724D01*
X276589Y320859D02*
X280136Y324406D01*
X276853Y321124D02*
X293469Y304509D01*
X276589Y303314D02*
X293448Y320174D01*
X276589Y318048D02*
X293473Y301164D01*
X276589Y314707D02*
X286172Y305124D01*
X276589Y306655D02*
X293444Y323510D01*
X276589Y311366D02*
X284834Y303121D01*
X274795Y353248D02*
X279565Y348478D01*
X271455Y353248D02*
X279390Y345313D01*
X276810Y331190D02*
X277947Y330053D01*
X267751Y334565D02*
X279315Y346129D01*
X273469Y331190D02*
X274606Y330053D01*
X273262D02*
X274399Y331190D01*
X276602Y330053D02*
X277739Y331190D01*
X270128D02*
X271265Y330053D01*
X266788Y331190D02*
X267925Y330053D01*
X266580D02*
X267717Y331190D01*
X269921Y330053D02*
X271058Y331190D01*
X258092Y353248D02*
X276776Y334565D01*
X257729D02*
X276413Y353248D01*
X261433D02*
X279177Y335504D01*
X263240Y330053D02*
X264377Y331190D01*
X254751Y353248D02*
X273435Y334565D01*
X259724Y324890D02*
X271344Y313271D01*
X259345Y330053D02*
X278528D01*
X263065Y324890D02*
X271344Y316611D01*
X260106Y331190D02*
X261243Y330053D01*
X259899D02*
X261036Y331190D01*
X263447D02*
X264584Y330053D01*
X270436Y319304D02*
X271344Y318395D01*
X267974Y311402D02*
X271344Y314773D01*
X269948Y307986D02*
X271344Y306589D01*
X269861Y309949D02*
X271344Y311432D01*
X269321Y306068D02*
X271344Y308091D01*
X268932Y302338D02*
X271344Y304751D01*
X269881Y304712D02*
X271344Y303249D01*
X265443Y324890D02*
X268793Y321540D01*
X256383Y324890D02*
X271344Y309930D01*
X258166Y304935D02*
X271344Y318113D01*
X254826Y304935D02*
X269636Y319746D01*
X264160Y304935D02*
X264946Y305722D01*
X261507Y304935D02*
X264979Y308407D01*
X254768Y301561D02*
X264216D01*
X289671Y301625D02*
X293478Y297819D01*
X276589Y308026D02*
X293486Y291129D01*
X288179Y291520D02*
X293479Y296819D01*
X287668Y300287D02*
X293482Y294474D01*
X276589Y299974D02*
X293453Y316837D01*
X293421Y341048D02*
X293489Y288797D01*
X290806Y290806D02*
X293483Y293483D01*
X284228Y290909D02*
X293475Y300156D01*
X276589Y304685D02*
X290225Y291049D01*
X276589Y296633D02*
X293457Y313501D01*
X276589Y299974D02*
X293453Y316837D01*
X276589Y301344D02*
X286434Y291499D01*
X276589Y293292D02*
X285062Y301765D01*
X276589Y290287D02*
Y320859D01*
Y298004D02*
X283854Y290739D01*
X276546Y289909D02*
X286950Y300313D01*
X266254Y276276D02*
X293470Y303492D01*
X276589Y294663D02*
X281875Y289377D01*
X276589Y291322D02*
X280396Y287516D01*
X292818Y289477D02*
X293488Y290147D01*
X274115Y287115D02*
X279496Y281734D01*
X277695Y277695D02*
X280060Y280060D01*
X275786Y288785D02*
X279475Y285096D01*
X270775Y283774D02*
X276841Y277708D01*
X274404Y277744D02*
X279346Y282687D01*
X280987Y277646D02*
X281389Y278048D01*
X272445Y285444D02*
X280232Y277658D01*
X273622Y277756D02*
X281788Y277635D01*
X273622Y277756D02*
X273917Y242323D01*
X270736Y273791D02*
X273680Y270847D01*
X272397Y242331D02*
X273905Y243839D01*
X270340Y277021D02*
X279957Y286638D01*
X266254Y279254D02*
X276093Y289092D01*
X260714Y270450D02*
X273792Y257372D01*
X268833Y272353D02*
X273708Y267478D01*
X267134Y270711D02*
X273736Y264110D01*
X264054Y270450D02*
X273764Y260741D01*
X265752Y242367D02*
X273850Y250465D01*
X262429Y242385D02*
X273822Y253778D01*
X269075Y242349D02*
X273877Y247152D01*
X257373Y270450D02*
X273820Y254004D01*
X255784Y242422D02*
X273767Y260404D01*
X259107Y242404D02*
X273794Y257091D01*
X268958Y302294D02*
X271344Y299908D01*
X263010Y301561D02*
X264235Y300336D01*
X271344Y291644D02*
Y318395D01*
X268651Y299261D02*
X271344Y296567D01*
X266081Y298490D02*
X271344Y293227D01*
X259669Y301561D02*
X270465Y290765D01*
X256329Y301561D02*
X268795Y289095D01*
X256683Y276983D02*
X271344Y291644D01*
X254768Y288175D02*
X265381Y298788D01*
X254768Y299780D02*
X267125Y287424D01*
X254768Y296440D02*
X265454Y285754D01*
X254768Y294856D02*
X261473Y301561D01*
X254768Y298197D02*
X258132Y301561D01*
X254768Y291516D02*
X264153Y300900D01*
X254768Y281494D02*
X271344Y298069D01*
X254768Y284834D02*
X271344Y301410D01*
X254768Y278153D02*
X271344Y294729D01*
X254768Y278153D02*
X271344Y294729D01*
X254768Y276761D02*
Y301561D01*
Y293099D02*
X263784Y284084D01*
X269104Y282104D02*
X273623Y277585D01*
X266254Y278273D02*
X267424Y277103D01*
X266254Y276268D02*
Y279254D01*
X271060Y274400D02*
X273629Y276969D01*
X267434Y280433D02*
X273652Y274216D01*
X267428Y270947D02*
X269372Y272891D01*
X254768Y286418D02*
X260443Y280743D01*
X254768Y289758D02*
X262114Y282413D01*
X254768Y283077D02*
X258773Y279073D01*
X255421Y275465D02*
X255967Y276011D01*
X254768Y279736D02*
X257103Y277402D01*
X255333Y275831D02*
X255676Y275488D01*
X255618Y270450D02*
X266232D01*
X248070Y353248D02*
X266754Y334565D01*
X245838Y336036D02*
X263050Y353248D01*
X254389Y334565D02*
X273072Y353248D01*
X251048Y334565D02*
X269732Y353248D01*
X246272Y349832D02*
X249688Y353248D01*
X244959Y351860D02*
X246347Y353248D01*
X244319Y337857D02*
X259710Y353248D01*
X251411D02*
X270094Y334565D01*
X247707D02*
X266391Y353248D01*
X246959Y334565D02*
X278933D01*
X246065Y348571D02*
X260072Y334565D01*
X244729Y353248D02*
X263413Y334565D01*
X245872Y335651D02*
X246959Y334565D01*
X228811Y353248D02*
X283000D01*
X234707D02*
X253391Y334565D01*
X218209Y315088D02*
X256369Y353248D01*
X244218Y347078D02*
X256732Y334565D01*
X231367Y353248D02*
X250050Y334565D01*
X218200Y318420D02*
X253028Y353248D01*
X246362Y324890D02*
X265274Y305978D01*
X245363Y324890D02*
X265443D01*
X253043D02*
X266644Y311289D01*
X251485Y304935D02*
X268441Y321892D01*
X249702Y324890D02*
X265034Y309558D01*
X243706Y317200D02*
X251396Y324890D01*
X253081Y304935D02*
X264160D01*
X248144D02*
X266771Y323562D01*
X243702Y324209D02*
X262976Y304935D01*
X247536D02*
X253081D01*
X245848Y303946D02*
X246341Y304439D01*
X239680Y306493D02*
X258077Y324890D01*
X239680Y309833D02*
X254737Y324890D01*
X242042Y322529D02*
X259635Y304935D01*
X242407Y319243D02*
X248055Y324890D01*
X242042Y322217D02*
X244061Y324237D01*
X243667Y317563D02*
X256295Y304935D01*
X240338Y303811D02*
X261418Y324890D01*
X242699Y315190D02*
X252954Y304935D01*
X239680Y311529D02*
X246574Y304634D01*
X239680Y314869D02*
X249613Y304935D01*
X239680Y308188D02*
X244416Y303451D01*
X232493Y346076D02*
X239666Y353248D01*
X232088Y349012D02*
X236325Y353248D01*
X241389D02*
X242666Y351971D01*
X238048Y353248D02*
X241172Y350124D01*
X229300Y352905D02*
X229644Y353248D01*
X230954Y351218D02*
X232984Y353248D01*
X232444Y345489D02*
X241339Y336594D01*
X231994Y349280D02*
X243283Y337991D01*
X231683Y342909D02*
X240039Y334554D01*
X230322Y340930D02*
X238368Y332884D01*
X228461Y339451D02*
X236702Y331209D01*
X226041Y338530D02*
X236305Y328266D01*
X218166Y331748D02*
X224790Y338373D01*
X218149Y338412D02*
X219649Y339912D01*
X218157Y335080D02*
X221855Y338778D01*
X219184Y326085D02*
X241447Y348348D01*
X218175Y328416D02*
X243006Y353248D01*
X221736Y325296D02*
X243475Y347035D01*
X218145Y339744D02*
X236305Y321585D01*
X218141Y341338D02*
X218182Y325471D01*
X222679Y338551D02*
X236305Y324925D01*
X242042Y319391D02*
Y324888D01*
X239680Y313174D02*
X241267Y314762D01*
X236801Y331317D02*
X241136Y335651D01*
X239680Y305799D02*
Y315439D01*
X236305Y305799D02*
Y330121D01*
X221917Y322610D02*
X236305Y308222D01*
X219728Y321459D02*
X235914Y305273D01*
X218162Y333046D02*
X236305Y314903D01*
X218154Y336395D02*
X236305Y318244D01*
X218180Y326347D02*
X218670Y325857D01*
X218192Y321752D02*
X218408Y321968D01*
X218218Y311756D02*
X236305Y329843D01*
X218171Y329696D02*
X236305Y311563D01*
X218226Y308424D02*
X236305Y326502D01*
X218244Y301760D02*
X236305Y319821D01*
X218235Y305092D02*
X236305Y323162D01*
X218223Y309600D02*
X225916Y301908D01*
X245231Y299296D02*
X251394Y293133D01*
X239128Y302059D02*
X251394Y289792D01*
X242362Y285790D02*
X251394Y294822D01*
X240716Y287485D02*
X251394Y298163D01*
X249647Y301561D02*
X251394Y299814D01*
X248235Y301561D02*
X251394D01*
X247739Y300128D02*
X251394Y296474D01*
X241479Y283004D02*
X273848Y250635D01*
X242494Y242494D02*
X273656Y273656D01*
X251394Y276761D02*
Y301561D01*
X242452Y285372D02*
X251238Y276586D01*
X238061Y261445D02*
X250869Y274253D01*
X229568Y289700D02*
X264759Y324890D01*
X218197Y319648D02*
X251394Y286452D01*
X218206Y316299D02*
X251394Y283111D01*
X232452Y282562D02*
X251394Y301504D01*
X218215Y312950D02*
X251394Y279771D01*
X237267Y277355D02*
X251394Y291482D01*
X238018Y271424D02*
X251394Y284800D01*
X238003Y274751D02*
X251394Y288141D01*
X238032Y268098D02*
X251394Y281460D01*
X238046Y264772D02*
X251394Y278119D01*
X218240Y302902D02*
X250519Y270624D01*
X238061Y261445D02*
X250869Y274253D01*
X252588Y272782D02*
X254423Y270947D01*
X250568Y270612D02*
X252663Y272707D01*
X252339Y269042D02*
X254333Y271036D01*
X252445Y268697D02*
X273876Y247266D01*
X251633Y266169D02*
X273904Y243897D01*
X252462Y242440D02*
X273739Y263717D01*
X249139Y242458D02*
X273711Y267030D01*
X248496Y265965D02*
X272128Y242333D01*
X239172Y242512D02*
X269626Y272966D01*
X238138Y244819D02*
X263769Y270450D01*
X245817Y242476D02*
X273684Y270343D01*
X238122Y248144D02*
X260429Y270450D01*
X238106Y251468D02*
X257088Y270450D01*
X238083Y256334D02*
X251975Y242442D01*
X238025Y269755D02*
X265410Y242369D01*
X238011Y273110D02*
X268769Y242351D01*
X238149Y242518D02*
X273917Y242323D01*
X238054Y263045D02*
X258693Y242406D01*
X238039Y266400D02*
X262052Y242388D01*
X238068Y259689D02*
X255334Y242424D01*
X229154Y299308D02*
X236305Y306459D01*
X228042Y301536D02*
X236305Y309799D01*
X240360Y304166D02*
X243584Y300942D01*
X232201Y285652D02*
X245761Y299212D01*
X231151Y287942D02*
X243741Y300532D01*
X229070Y298753D02*
X240225Y287599D01*
X227480Y290952D02*
X238319Y301791D01*
X224738Y291551D02*
X236017Y302830D01*
X227485Y296997D02*
X237857Y286626D01*
X218261Y295096D02*
X236305Y313140D01*
X218252Y298428D02*
X236305Y316480D01*
X218232Y306251D02*
X224160Y300323D01*
X218269Y291764D02*
X224451Y297946D01*
X220257Y290411D02*
X226680Y296834D01*
X218249Y299552D02*
X226526Y291276D01*
X218258Y296203D02*
X223023Y291438D01*
X218191Y322164D02*
X218277Y288746D01*
X218267Y292854D02*
X220545Y290575D01*
X237996Y276465D02*
X247787Y266674D01*
X238089Y254793D02*
X249000Y265703D01*
X238075Y258119D02*
X247430Y267474D01*
X238115Y249621D02*
X245257Y242479D01*
X238098Y252978D02*
X248616Y242461D01*
X238131Y246264D02*
X241898Y242497D01*
X238090Y254528D02*
X238149Y242518D01*
X237992Y277362D02*
X238090Y254528D01*
X238148Y242907D02*
X238539Y242516D01*
X233893Y277321D02*
X239141Y282570D01*
X232383Y282078D02*
X237108Y277353D01*
X218275Y289505D02*
X218640Y289140D01*
X232221Y285581D02*
X247990Y269811D01*
X230518Y277288D02*
X237446Y284215D01*
X229628Y277279D02*
X237992Y277362D01*
X231520Y279600D02*
X233800Y277320D01*
X230085Y277695D02*
X230492Y277287D01*
M02*
