G04 Layer_Color=7318015*
%FSLAX25Y25*%
%MOIN*%
G70*
G01*
G75*
G04:AMPARAMS|DCode=10|XSize=7.09mil|YSize=39.37mil|CornerRadius=0.89mil|HoleSize=0mil|Usage=FLASHONLY|Rotation=90.000|XOffset=0mil|YOffset=0mil|HoleType=Round|Shape=RoundedRectangle|*
%AMROUNDEDRECTD10*
21,1,0.00709,0.03760,0,0,90.0*
21,1,0.00532,0.03937,0,0,90.0*
1,1,0.00177,0.01880,0.00266*
1,1,0.00177,0.01880,-0.00266*
1,1,0.00177,-0.01880,-0.00266*
1,1,0.00177,-0.01880,0.00266*
%
%ADD10ROUNDEDRECTD10*%
G04:AMPARAMS|DCode=11|XSize=7.09mil|YSize=39.37mil|CornerRadius=0.89mil|HoleSize=0mil|Usage=FLASHONLY|Rotation=180.000|XOffset=0mil|YOffset=0mil|HoleType=Round|Shape=RoundedRectangle|*
%AMROUNDEDRECTD11*
21,1,0.00709,0.03760,0,0,180.0*
21,1,0.00532,0.03937,0,0,180.0*
1,1,0.00177,-0.00266,0.01880*
1,1,0.00177,0.00266,0.01880*
1,1,0.00177,0.00266,-0.01880*
1,1,0.00177,-0.00266,-0.01880*
%
%ADD11ROUNDEDRECTD11*%
%ADD12R,0.06299X0.06299*%
%ADD13R,0.06299X0.06299*%
%ADD14R,0.02200X0.02200*%
%ADD15R,0.02756X0.02559*%
%ADD16R,0.01969X0.01575*%
%ADD17R,0.01575X0.01969*%
%ADD18R,0.05512X0.07087*%
%ADD19R,0.02362X0.06102*%
D10*
X249410Y290748D02*
D03*
Y288779D02*
D03*
Y286811D02*
D03*
Y284842D02*
D03*
X262402Y290748D02*
D03*
Y288779D02*
D03*
Y286811D02*
D03*
Y284842D02*
D03*
X289961Y318307D02*
D03*
Y316339D02*
D03*
Y314370D02*
D03*
Y312402D02*
D03*
X276969Y318307D02*
D03*
Y316339D02*
D03*
Y314370D02*
D03*
Y312402D02*
D03*
X249410Y339961D02*
D03*
Y341929D02*
D03*
Y343898D02*
D03*
Y345866D02*
D03*
X262402Y339961D02*
D03*
Y341929D02*
D03*
Y343898D02*
D03*
Y345866D02*
D03*
Y318307D02*
D03*
Y316339D02*
D03*
Y314370D02*
D03*
Y312402D02*
D03*
X249410Y318307D02*
D03*
Y316339D02*
D03*
Y314370D02*
D03*
Y312402D02*
D03*
X234842Y312602D02*
D03*
Y314570D02*
D03*
Y316539D02*
D03*
Y318507D02*
D03*
X221850Y312602D02*
D03*
Y314570D02*
D03*
Y316539D02*
D03*
Y318507D02*
D03*
D11*
X252953Y294291D02*
D03*
X254921D02*
D03*
X256890D02*
D03*
X258858D02*
D03*
X252953Y281299D02*
D03*
X254921D02*
D03*
X256890D02*
D03*
X258858D02*
D03*
X286417Y321850D02*
D03*
X284449D02*
D03*
X282480D02*
D03*
X280512D02*
D03*
X286417Y308858D02*
D03*
X284449D02*
D03*
X282480D02*
D03*
X280512D02*
D03*
X252953Y336417D02*
D03*
X254921D02*
D03*
X256890D02*
D03*
X258858D02*
D03*
X252953Y349410D02*
D03*
X254921D02*
D03*
X256890D02*
D03*
X258858D02*
D03*
Y321850D02*
D03*
X256890D02*
D03*
X254921D02*
D03*
X252953D02*
D03*
X258858Y308858D02*
D03*
X256890D02*
D03*
X254921D02*
D03*
X252953D02*
D03*
X231299Y309058D02*
D03*
X229331D02*
D03*
X227362D02*
D03*
X225394D02*
D03*
X231299Y322050D02*
D03*
X229331D02*
D03*
X227362D02*
D03*
X225394D02*
D03*
D12*
X255906Y287795D02*
D03*
X228346Y315554D02*
D03*
D13*
X283465Y315354D02*
D03*
X255906Y342913D02*
D03*
Y315354D02*
D03*
D14*
X239898Y268110D02*
D03*
X243898D02*
D03*
X239898Y272441D02*
D03*
X243898D02*
D03*
X239898Y276772D02*
D03*
X243898D02*
D03*
X239898Y281102D02*
D03*
X243898D02*
D03*
D15*
X257776Y270472D02*
D03*
X254035D02*
D03*
X265059D02*
D03*
X268799D02*
D03*
D16*
X267717Y312404D02*
D03*
Y316341D02*
D03*
X243701Y345870D02*
D03*
Y341933D02*
D03*
D17*
X284154Y302953D02*
D03*
X280217D02*
D03*
X226378Y302956D02*
D03*
X230315D02*
D03*
X259055Y303350D02*
D03*
X255118D02*
D03*
D18*
X267913Y246654D02*
D03*
X244291D02*
D03*
D19*
X262008Y261417D02*
D03*
X258071D02*
D03*
X254134D02*
D03*
X250197D02*
D03*
M02*
